<svg version="1.1" viewBox="0 0 214 214" xmlns="http://www.w3.org/2000/svg">
 <rect width="214" height="214" rx="8" fill="#ecc94b" fill-rule="evenodd"/>
 <g fill="#1a202c" stroke-width="1.9749">
  <path d="m19.4 129.37v-59.665h24.533q8.5376 0 13.64 4.8085 5.1029 4.7104 5.1029 12.659 0 8.0469-5.1029 12.855-5.1029 4.8085-13.64 4.8085h-17.075v24.533zm7.4581-31.304h17.075q5.1029 0 8.2432-2.944 3.0421-3.0421 3.0421-7.9488 0-4.8085-3.0421-7.7525-3.1403-2.944-8.2432-2.944h-17.075z"/>
  <path d="m66.937 107q0-10.5 5.4954-16.781 5.4954-6.2805 14.622-6.2805 9.1264 0 14.72 6.2805 5.4954 6.2805 5.4954 16.781 0 10.5-5.4954 16.781-5.5936 6.2805-14.72 6.2805t-14.622-6.2805q-5.4954-6.2805-5.4954-16.781zm6.673 0q0 7.7525 3.6309 12.463 3.7291 4.7104 9.8133 4.7104t9.8133-4.7104q3.6309-4.7104 3.6309-12.463 0-7.7525-3.6309-12.365-3.7291-4.7104-9.8133-4.7104t-9.8133 4.7104q-3.6309 4.6122-3.6309 12.365z"/>
  <path d="m133.02 84.574c-4.645 0-9.4652 1.7522-12.736 5.1542-3.2711 3.3365-4.9062 7.3599-4.9062 12.07v27.576h6.7715v-27.576c0-3.0094 1.0794-5.5608 3.2383-7.6543 2.1207-2.0565 4.6869-3.0984 7.6914-3.1348 3.0054 0.03592 5.5722 1.0779 7.6934 3.1348 2.1589 2.0935 3.2383 4.6449 3.2383 7.6543v27.576h6.7715v-27.576c0-4.7104-1.6352-8.7338-4.9062-12.07-4.5365-4.0245-7.8882-5.0219-12.856-5.1542z"/>
  <path d="m157.31 107q0-9.0282 5.1029-15.505 5.2992-6.8693 13.444-6.8693 3.8272 0 6.8693 1.472 3.4347 1.5701 5.1029 4.5141v-4.5141h6.7712v43.277q0 6.673-5.7898 10.893-5.3973 4.0234-12.954 4.0234-6.8693 0-11.874-3.2384-5.4954-3.6309-5.9861-9.5189h6.7712q0.5888 3.3365 4.0234 5.201 2.944 1.5701 7.0656 1.5701 4.8085 0 8.2432-2.3552 3.7291-2.4533 3.7291-6.5749v-5.9861q-1.6683 2.944-5.1029 4.5141-3.0421 1.472-6.8693 1.472-8.145 0-13.444-6.8693-5.1029-6.4768-5.1029-15.505zm6.673 0q0 6.5749 3.0421 11.285 3.3365 5.1029 8.832 5.1029t8.9301-5.1029q3.0421-4.7104 3.0421-11.285 0-6.5749-3.0421-11.187-3.4347-5.1029-8.9301-5.1029t-8.832 5.1029q-3.0421 4.6122-3.0421 11.187z"/>
 </g>
</svg>
